<?xml version="1.0" standalone="no"?>
<!DOCTYPE svg PUBLIC "-//W3C//DTD SVG 20010904//EN"
 "http://www.w3.org/TR/2001/REC-SVG-20010904/DTD/svg10.dtd">
<svg version="1.0" xmlns="http://www.w3.org/2000/svg"
 width="1080.000000pt" height="1080.000000pt" viewBox="0 0 1080.000000 1080.000000"
 preserveAspectRatio="xMidYMid meet">
<metadata>
Created by potrace 1.14, written by Peter Selinger 2001-2017
</metadata>
<g transform="translate(0.000000,1080.000000) scale(0.100000,-0.100000)"
fill="#000000" stroke="none">
<path d="M4979 8842 c-2 -6 -24 -11 -49 -13 -25 -1 -49 -5 -55 -8 -11 -6 -59
-13 -97 -14 -16 0 -28 -4 -28 -7 0 -7 -3 -8 -58 -11 -18 -1 -35 -6 -38 -11 -3
-4 -10 -6 -15 -3 -5 4 -9 2 -9 -4 0 -5 -8 -8 -17 -6 -10 1 -22 0 -28 -4 -13
-7 -36 -12 -58 -12 -10 0 -20 -6 -23 -13 -3 -8 -14 -12 -25 -9 -10 3 -19 0
-19 -6 0 -5 -7 -8 -15 -5 -8 4 -15 2 -15 -4 0 -6 -11 -9 -25 -8 -13 2 -22 -1
-19 -5 5 -8 -10 -13 -28 -10 -5 0 -8 -3 -8 -9 0 -5 -7 -7 -15 -4 -8 4 -15 1
-15 -6 0 -6 -4 -9 -9 -5 -5 3 -13 0 -16 -6 -4 -5 -13 -8 -21 -5 -8 3 -14 1
-14 -4 0 -6 -7 -10 -15 -10 -8 0 -15 -4 -15 -10 0 -6 -3 -9 -7 -8 -15 4 -73
-21 -73 -32 0 -6 -4 -9 -10 -5 -9 6 -41 -9 -72 -34 -10 -8 -18 -10 -18 -5 0 5
-7 0 -15 -10 -8 -11 -15 -16 -15 -12 0 4 -13 -2 -29 -13 -16 -12 -33 -21 -37
-21 -4 0 -16 -8 -27 -17 -15 -13 -19 -14 -13 -3 4 9 2 8 -7 -2 -8 -10 -19 -18
-26 -18 -6 0 -11 -4 -11 -9 0 -5 -8 -12 -19 -16 -10 -3 -31 -17 -46 -30 -14
-14 -30 -23 -34 -21 -4 3 -14 -4 -21 -15 -8 -10 -20 -19 -27 -19 -7 0 -13 -4
-13 -10 0 -5 -6 -10 -14 -10 -7 0 -20 -8 -27 -17 -13 -17 -13 -17 6 -3 19 14
19 14 6 -2 -7 -10 -17 -16 -21 -13 -4 3 -20 -7 -34 -20 -15 -14 -32 -25 -37
-25 -6 0 -7 -4 -4 -10 3 -5 2 -10 -3 -10 -5 0 -38 -27 -73 -60 -35 -33 -68
-60 -72 -60 -5 0 -6 -4 -2 -9 3 -5 -4 -12 -15 -16 -11 -3 -20 -10 -20 -14 0
-5 -25 -34 -55 -65 -30 -31 -53 -56 -50 -56 3 0 -4 -11 -17 -25 -13 -13 -35
-38 -50 -54 -15 -16 -24 -31 -21 -35 4 -3 1 -6 -6 -6 -7 0 -9 -4 -6 -10 3 -5
-1 -10 -9 -10 -9 0 -15 -6 -14 -12 2 -7 -3 -12 -10 -10 -8 1 -11 -2 -7 -8 3
-5 1 -10 -5 -10 -6 0 -8 -4 -5 -10 3 -5 1 -10 -5 -10 -6 0 -9 -4 -6 -8 3 -5
-4 -16 -15 -25 -10 -9 -19 -24 -19 -34 0 -9 -3 -13 -7 -10 -7 8 -76 -110 -76
-130 0 -7 -3 -11 -5 -8 -7 7 -32 -15 -32 -29 0 -6 5 -4 10 4 6 9 10 10 10 3 0
-7 -8 -16 -17 -22 -10 -5 -18 -13 -18 -18 0 -4 -4 -7 -8 -5 -5 1 -6 -2 -2 -7
3 -6 -4 -27 -15 -48 -11 -21 -20 -42 -20 -47 0 -5 -8 -15 -17 -23 -11 -8 -12
-11 -3 -7 12 7 13 5 3 -8 -7 -8 -10 -18 -6 -21 3 -4 1 -7 -5 -7 -10 0 -38 -67
-34 -82 1 -5 -3 -8 -10 -8 -6 0 -8 -3 -5 -7 4 -3 2 -12 -5 -20 -6 -7 -8 -16
-5 -20 4 -3 -1 -12 -11 -20 -10 -9 -11 -11 -2 -7 13 7 13 5 1 -9 -7 -9 -10
-17 -5 -17 5 0 2 -5 -7 -10 -10 -6 -15 -21 -14 -39 1 -17 -4 -32 -11 -35 -7
-3 -13 -13 -13 -23 0 -22 -5 -45 -12 -58 -4 -5 -5 -18 -4 -27 2 -10 0 -18 -5
-18 -4 0 -11 -7 -14 -16 -4 -9 -2 -13 5 -8 8 4 7 0 0 -15 -7 -11 -9 -21 -6
-21 3 0 1 -8 -4 -18 -7 -13 -6 -23 2 -31 9 -10 9 -12 -3 -9 -11 2 -15 -5 -14
-24 0 -16 -3 -28 -7 -28 -4 0 -4 -14 1 -30 5 -17 5 -28 0 -25 -4 2 -14 -3 -21
-12 -10 -12 -10 -14 -1 -9 7 4 12 2 12 -8 0 -8 -6 -17 -12 -19 -9 -4 -10 -6
-1 -6 8 -1 9 -10 4 -28 -4 -16 -6 -34 -3 -42 3 -9 0 -11 -8 -6 -9 6 -9 3 0
-15 7 -13 8 -20 2 -16 -7 4 -11 -85 -11 -274 0 -219 2 -279 12 -274 6 5 5 -1
-3 -11 -12 -15 -12 -17 -1 -10 11 6 13 3 9 -13 -4 -12 -3 -24 1 -26 4 -3 6
-25 6 -50 -1 -25 2 -46 5 -46 7 0 8 -4 11 -57 1 -20 6 -30 13 -26 7 4 6 1 -1
-7 -7 -8 -8 -19 -3 -29 12 -23 31 -92 33 -118 1 -13 5 -23 9 -23 4 0 5 -7 2
-15 -4 -8 -2 -15 4 -15 6 0 8 -9 5 -20 -3 -12 0 -20 6 -20 7 0 10 -4 7 -8 -2
-4 -1 -14 4 -22 5 -9 4 -20 -3 -29 -9 -12 -9 -13 1 -7 14 8 26 -16 31 -66 1
-4 8 -14 17 -22 12 -12 12 -16 2 -16 -11 0 -10 -2 0 -9 8 -5 15 -20 15 -35 1
-14 7 -26 14 -26 7 0 10 -7 7 -15 -4 -8 -1 -15 6 -15 6 0 9 -4 5 -9 -3 -5 0
-13 6 -16 5 -4 8 -13 5 -20 -2 -7 2 -16 11 -19 8 -4 13 -13 9 -21 -3 -8 -2
-15 3 -15 9 0 37 -60 33 -72 -1 -5 3 -8 8 -8 6 0 10 -7 10 -15 0 -8 4 -15 9
-15 8 0 27 -42 29 -63 0 -5 9 -15 19 -23 10 -7 14 -14 9 -14 -5 0 0 -8 10 -17
10 -10 20 -25 22 -33 2 -8 8 -17 13 -18 5 -2 7 -8 3 -13 -3 -5 2 -12 10 -15 9
-3 16 -13 16 -21 0 -8 5 -11 10 -8 6 3 10 -3 10 -14 0 -12 5 -21 10 -21 6 0
10 -6 10 -13 0 -7 8 -20 18 -29 21 -20 37 -40 43 -53 2 -5 7 -9 12 -8 4 2 7
-4 7 -12 0 -8 5 -15 10 -15 6 0 10 -5 10 -10 0 -6 14 -24 30 -40 17 -17 28
-30 25 -30 -3 0 3 -8 13 -18 9 -11 20 -17 25 -15 4 3 6 1 5 -4 -2 -5 16 -29
40 -53 23 -24 42 -47 42 -52 0 -4 6 -7 13 -5 6 1 11 -3 10 -10 -2 -6 6 -15 17
-18 11 -4 20 -14 20 -22 0 -9 3 -14 6 -10 9 9 44 -25 37 -37 -3 -6 -3 -8 1 -4
5 4 20 -4 34 -17 14 -13 30 -21 36 -18 6 3 8 3 4 -1 -7 -9 27 -46 42 -46 6 0
13 -7 16 -15 3 -8 14 -17 25 -20 11 -4 17 -11 14 -16 -3 -5 1 -6 9 -3 9 3 19
-3 26 -16 6 -11 14 -18 19 -16 4 3 13 -4 21 -14 8 -10 17 -17 22 -14 4 3 8 -2
8 -11 0 -9 4 -14 9 -11 17 11 42 -6 36 -22 -3 -9 -3 -14 0 -10 9 9 66 -12 60
-22 -3 -5 4 -7 15 -5 11 2 18 0 15 -4 -2 -5 3 -15 12 -22 13 -11 15 -11 9 -1
-7 11 -4 11 12 1 12 -7 19 -17 16 -21 -3 -4 2 -5 10 -2 9 3 16 1 16 -5 0 -6 9
-11 20 -11 11 0 23 -6 26 -14 3 -8 14 -13 25 -11 11 2 17 0 14 -6 -6 -9 8 -13
33 -10 7 1 11 -4 10 -11 -2 -8 5 -12 20 -11 13 2 22 -3 22 -12 0 -8 8 -12 20
-10 11 2 20 0 20 -6 0 -5 9 -9 19 -9 11 0 21 -4 23 -9 2 -5 12 -11 23 -13 11
-1 22 -6 25 -9 3 -4 16 -9 30 -10 14 -2 28 -8 31 -12 3 -4 16 -9 27 -10 12 -1
22 -5 22 -10 0 -5 7 -6 16 -3 9 4 13 2 8 -5 -4 -8 1 -9 15 -4 12 3 21 2 21 -4
0 -5 8 -10 18 -11 52 -2 70 -6 65 -12 -2 -5 5 -8 16 -8 12 0 21 -4 21 -10 0
-5 7 -7 15 -4 8 4 23 0 32 -7 14 -12 16 -12 8 1 -7 12 -6 13 7 3 8 -7 18 -10
21 -6 4 3 7 1 7 -7 0 -10 3 -10 15 0 12 10 15 10 15 -1 0 -9 14 -15 43 -17 54
-3 69 -6 86 -16 11 -7 12 -6 6 5 -7 11 -6 12 7 2 8 -7 18 -10 21 -6 4 3 7 1 7
-7 0 -9 3 -10 13 -1 10 8 17 7 25 -1 9 -9 12 -9 12 0 0 9 7 8 24 -4 30 -19 36
-19 47 -2 7 10 9 10 9 1 0 -10 60 -13 270 -12 161 1 270 5 270 11 0 5 5 6 10
3 6 -4 17 -1 25 5 11 10 15 10 15 1 0 -7 5 -9 12 -5 7 5 27 8 45 7 18 0 33 3
33 8 0 4 9 6 20 4 11 -2 22 0 25 4 2 5 18 7 35 5 19 -2 29 0 25 6 -3 6 1 7 9
4 9 -3 16 -2 16 3 0 5 9 9 20 9 11 0 20 -5 20 -11 0 -5 5 -3 10 5 5 8 10 11
10 5 0 -5 4 -5 8 2 4 7 24 13 45 15 20 1 37 6 37 11 0 4 5 5 10 2 6 -3 10 -2
10 4 0 5 11 8 25 6 14 -1 25 2 25 6 0 5 6 9 14 9 8 0 27 5 43 12 15 6 34 10
41 9 6 -1 12 3 12 9 0 6 4 9 9 5 5 -3 12 -1 16 5 4 6 11 7 17 4 6 -4 13 -2 17
4 4 7 18 13 31 15 13 2 26 9 28 15 2 7 8 10 13 6 11 -6 99 36 99 47 0 5 6 6
14 3 8 -3 17 0 21 5 3 6 11 9 16 6 5 -4 12 1 15 9 3 9 15 16 25 16 10 0 19 5
19 11 0 5 5 7 10 4 6 -3 10 -2 10 3 0 6 12 13 28 17 15 3 35 16 45 28 10 12
16 16 12 9 -6 -11 -3 -11 14 0 12 7 21 16 21 21 0 4 5 5 10 2 6 -3 10 -1 10 4
0 6 7 11 15 11 8 0 15 4 15 9 0 5 9 13 20 16 11 4 18 11 15 16 -3 5 1 6 9 3 9
-3 16 -1 16 6 0 6 5 8 10 5 6 -3 13 1 16 9 3 9 11 16 16 16 6 0 21 11 33 24
13 14 25 22 28 19 3 -3 23 11 43 31 20 20 41 36 46 36 5 0 6 5 3 10 -3 6 1 10
9 10 8 0 44 27 78 60 80 77 78 75 111 110 16 17 33 30 38 30 5 0 9 4 9 9 0 14
51 66 61 64 4 -2 5 5 2 14 -4 11 -3 14 5 9 7 -4 14 3 18 20 5 19 9 22 15 12 7
-10 9 -10 9 0 0 20 66 102 75 94 5 -4 5 -2 2 4 -4 7 0 17 8 24 8 7 15 19 15
27 0 8 5 11 10 8 6 -3 10 3 10 14 0 13 7 21 17 21 9 0 14 3 10 6 -3 4 7 26 23
50 17 23 30 47 30 53 0 6 5 11 10 11 6 0 10 7 10 15 0 8 5 15 10 15 6 0 10 7
10 15 0 8 5 15 11 15 6 0 8 7 5 15 -3 9 1 18 9 21 8 4 12 10 9 15 -3 5 0 9 6
9 6 0 9 4 6 9 -3 5 1 14 10 21 8 7 13 19 10 27 -3 8 -1 11 4 8 6 -3 10 3 10
15 0 11 6 23 14 26 8 3 12 12 9 20 -3 7 2 16 10 20 9 3 13 12 11 19 -3 7 -1
16 5 20 6 3 11 15 11 26 0 11 7 22 15 25 8 4 12 10 10 15 -3 5 0 21 8 36 8 15
12 34 10 40 -3 7 2 16 11 19 9 3 13 10 10 15 -3 6 0 16 6 24 7 8 9 15 5 15 -4
0 -2 7 5 15 7 8 9 15 5 15 -5 0 0 9 9 19 12 13 14 21 6 26 -8 5 -5 11 7 21 10
7 13 14 6 14 -7 0 -10 7 -7 15 4 8 9 13 13 10 4 -2 8 2 8 10 0 8 -5 12 -10 8
-5 -3 -1 7 9 23 14 21 15 26 4 19 -11 -6 -10 -3 2 11 10 11 16 30 13 42 -2 12
0 22 4 22 4 0 8 6 8 13 3 35 11 78 16 84 4 3 2 12 -3 19 -8 8 -7 16 3 25 7 8
13 28 13 45 0 16 4 35 8 42 4 7 2 12 -5 12 -8 0 -7 6 4 18 13 15 15 58 15 310
0 161 -3 290 -7 288 -4 -3 -7 5 -6 17 1 12 -2 30 -6 39 -6 10 -5 19 1 23 6 4
8 11 5 16 -4 5 -8 18 -11 29 -2 11 -6 30 -10 43 -3 12 -7 38 -10 57 -6 45 -12
75 -15 75 -1 0 -2 11 -3 25 -1 14 -7 34 -13 45 -6 11 -8 26 -6 33 3 6 0 12 -7
12 -6 0 -8 5 -5 10 3 6 3 16 -2 23 -4 6 -9 21 -10 32 -2 10 -7 22 -11 25 -4 3
-7 15 -6 28 1 12 -3 22 -8 22 -5 0 -7 4 -3 9 3 5 0 13 -6 16 -5 4 -8 13 -5 21
3 8 0 17 -7 20 -7 2 -14 16 -15 31 -1 15 -7 30 -13 34 -7 4 -8 12 -5 18 4 6 2
11 -4 11 -7 0 -10 7 -6 15 3 8 2 15 -2 15 -4 0 -13 14 -20 30 -6 17 -18 44
-24 60 -7 17 -16 30 -20 30 -5 0 -7 3 -7 8 3 19 -2 33 -10 27 -6 -3 -8 3 -6
14 2 11 -3 22 -11 25 -9 3 -13 10 -10 14 3 5 -4 18 -14 30 -11 12 -20 28 -20
37 0 8 -5 15 -10 15 -6 0 -9 6 -8 13 2 6 -4 10 -12 9 -8 -2 -12 0 -7 4 4 4 0
18 -8 31 -9 13 -13 28 -10 33 3 5 -3 11 -13 14 -10 4 -25 22 -32 41 -8 19 -20
35 -27 35 -8 0 -11 4 -8 10 3 5 -6 21 -20 34 -16 15 -24 30 -19 37 4 7 3 9 -3
6 -6 -4 -15 5 -22 19 -6 14 -16 22 -21 19 -6 -3 -10 3 -10 14 0 11 -9 25 -20
31 -11 6 -20 18 -20 26 0 8 -4 12 -10 9 -5 -3 -10 1 -10 10 0 8 -7 18 -15 21
-8 4 -12 10 -9 15 3 5 2 8 -3 7 -9 -3 -173 162 -173 174 0 4 -7 8 -15 8 -8 0
-20 9 -27 20 -7 11 -18 20 -25 20 -7 0 -13 7 -13 16 0 8 -4 13 -8 10 -4 -2
-14 -1 -22 5 -13 7 -13 9 0 9 8 1 4 6 -10 12 -14 6 -29 10 -33 9 -5 -1 -6 2
-3 7 6 10 -30 43 -38 35 -3 -4 -6 -2 -6 4 0 5 -12 15 -26 21 -15 7 -22 17 -18
24 4 7 3 8 -5 4 -6 -4 -14 -1 -17 8 -3 8 -12 12 -20 9 -8 -3 -14 0 -14 7 0 6
-4 8 -10 5 -5 -3 -10 0 -10 8 0 8 -13 20 -30 26 -16 5 -30 15 -30 21 0 6 -4 8
-10 5 -5 -3 -10 -1 -10 5 0 6 -4 8 -10 5 -5 -3 -10 1 -10 10 0 10 -5 13 -12 9
-6 -4 -17 1 -25 11 -7 11 -13 15 -13 11 0 -5 -7 -3 -15 4 -8 7 -15 9 -15 4 0
-4 -6 0 -13 10 -7 9 -19 18 -27 19 -8 1 -26 10 -39 19 -13 10 -28 15 -33 12
-4 -3 -8 0 -8 6 0 6 -4 9 -9 6 -5 -3 -11 1 -15 9 -3 8 -12 12 -21 9 -8 -4 -17
1 -21 10 -3 9 -10 14 -14 11 -11 -7 -41 5 -36 14 3 4 -7 8 -22 9 -15 1 -28 6
-30 12 -2 5 -10 6 -18 3 -8 -3 -14 1 -14 8 0 11 -3 11 -10 -1 -8 -13 -10 -12
-10 3 0 10 -6 17 -12 15 -7 -1 -22 3 -33 9 -21 12 -26 13 -51 13 -8 0 -13 4
-10 9 4 5 -2 8 -11 6 -10 -1 -29 3 -43 10 -14 7 -33 11 -42 10 -10 -2 -18 1
-18 6 0 4 -7 5 -17 2 -12 -5 -14 -3 -8 7 6 9 4 12 -6 8 -8 -3 -25 -1 -39 5
-14 5 -43 12 -65 14 -22 2 -44 8 -50 12 -5 4 -28 9 -49 10 -21 1 -47 6 -56 11
-11 6 -21 5 -30 -3 -10 -9 -11 -9 -5 1 5 10 0 13 -21 12 -61 -4 -85 0 -78 13
5 7 0 6 -11 -3 -10 -8 -16 -10 -12 -3 6 9 -56 12 -268 12 -211 1 -275 -2 -275
-12 0 -8 -4 -7 -10 3 -9 13 -10 13 -10 0 0 -12 -2 -13 -9 -1 -5 8 -10 9 -12 3z"/>
</g>
</svg>
